<?xml version="1.0" encoding="utf-8"?><svg viewBox="0 0 502.66 502.66" xmlns="http://www.w3.org/2000/svg" xmlns:xlink="http://www.w3.org/1999/xlink"><style>:root>svg{display:none}:root>svg:target{display:block}</style><svg fill="none" viewBox="0 0 37 29" id="burger-menu" xmlns="http://www.w3.org/2000/svg"><path d="M35.458 26H1.542C.69 26 0 26.672 0 27.5S.69 29 1.542 29h33.916C36.31 29 37 28.328 37 27.5s-.69-1.5-1.542-1.5zM35.5 0h-21a1.5 1.5 0 000 3h21a1.5 1.5 0 000-3zM35.458 9H1.542C.69 9 0 9.672 0 10.5S.69 12 1.542 12h33.916C36.31 12 37 11.328 37 10.5S36.31 9 35.458 9zM35.5 18h-21a1.5 1.5 0 000 3h21a1.5 1.5 0 000-3z" fill="#000"/></svg><svg fill="none" viewBox="0 0 26 26" id="close" xmlns="http://www.w3.org/2000/svg"><path fill-rule="evenodd" clip-rule="evenodd" d="M14.436 13L25.703 1.734A1.016 1.016 0 1024.265.297L13 11.564 1.734.297A1.016 1.016 0 10.297 1.734L11.564 13 .297 24.266a1.016 1.016 0 001.437 1.437L13 14.436l11.266 11.267a1.013 1.013 0 001.437 0 1.016 1.016 0 000-1.437L14.436 13z" fill="#363838"/></svg><svg fill="none" viewBox="0 0 16 12" id="email-icon" xmlns="http://www.w3.org/2000/svg"><path d="M14.5 0h-13A1.5 1.5 0 000 1.5v9c0 .844.656 1.5 1.5 1.5h13a1.5 1.5 0 001.5-1.5v-9c0-.813-.688-1.5-1.5-1.5zm0 1.5v1.281c-.719.594-1.844 1.469-4.219 3.344C9.75 6.531 8.72 7.531 8 7.5c-.75.031-1.781-.969-2.313-1.375-2.375-1.875-3.5-2.75-4.187-3.344V1.5h13zm-13 9V4.719c.688.562 1.719 1.375 3.25 2.593C5.438 7.845 6.656 9.033 8 9c1.313.031 2.5-1.156 3.219-1.688A510.233 510.233 0 0114.5 4.72V10.5h-13z" fill="#363838"/></svg><svg fill="none" viewBox="0 0 16 16" id="facebook-icon" xmlns="http://www.w3.org/2000/svg"><path d="M15.75 8A7.749 7.749 0 008 .25 7.749 7.749 0 00.25 8c0 3.875 2.813 7.094 6.531 7.656V10.25H4.813V8H6.78V6.312c0-1.937 1.157-3.03 2.907-3.03.874 0 1.75.155 1.75.155v1.907h-.97c-.968 0-1.28.593-1.28 1.218V8h2.156L11 10.25H9.187v5.406A7.74 7.74 0 0015.75 8z" fill="#707070"/></svg><svg viewBox="0 0 502.664 502.664" id="icon" xmlns="http://www.w3.org/2000/svg"><g fill="#010002"><path d="M153.821 358.226L0 274.337v-46.463l153.821-83.414v54.574L46.636 250.523l107.185 53.431v54.272zM180.094 387.584L282.103 115.08h32.227L212.084 387.584h-31.99zM348.843 358.226v-54.272l107.164-52.999-107.164-52.59v-53.927l153.821 83.522v46.183l-153.821 84.083z"/></g></svg><svg fill="none" viewBox="0 0 14 15" id="instagram-icon" xmlns="http://www.w3.org/2000/svg"><path d="M7 3.406C5 3.406 3.406 5.031 3.406 7 3.406 9 5 10.594 7 10.594A3.594 3.594 0 0010.594 7c0-1.969-1.625-3.594-3.594-3.594zm0 5.938A2.34 2.34 0 014.656 7c0-1.281 1.032-2.313 2.344-2.313A2.307 2.307 0 019.313 7C9.313 8.313 8.28 9.344 7 9.344zm4.563-6.063a.84.84 0 00-.844-.844.84.84 0 00-.844.844.84.84 0 00.844.844.84.84 0 00.844-.844zm2.374.844C13.876 3 13.626 2 12.813 1.187 12 .375 11 .125 9.874.063 8.719 0 5.25 0 4.094.063 2.969.126 2 .376 1.156 1.188.344 2 .094 3 .031 4.126-.03 5.281-.03 8.75.031 9.906.094 11.031.344 12 1.156 12.844c.844.812 1.813 1.062 2.938 1.125 1.156.062 4.625.062 5.781 0 1.125-.063 2.125-.313 2.938-1.125.812-.844 1.062-1.813 1.124-2.938.063-1.156.063-4.625 0-5.781zm-1.5 7c-.218.625-.718 1.094-1.312 1.344-.938.375-3.125.281-4.125.281-1.031 0-3.219.094-4.125-.281a2.37 2.37 0 01-1.344-1.344C1.156 10.219 1.25 8.031 1.25 7c0-1-.094-3.188.281-4.125a2.41 2.41 0 011.344-1.313c.906-.375 3.094-.28 4.125-.28 1 0 3.188-.095 4.125.28.594.22 1.063.72 1.313 1.313.374.938.28 3.125.28 4.125 0 1.031.095 3.219-.28 4.125z" fill="#707070"/></svg><svg fill="none" viewBox="0 0 6 12" id="pagination-arrow" xmlns="http://www.w3.org/2000/svg"><path d="M5.873 5.67L.735.137a.409.409 0 00-.61 0 .492.492 0 00.002.658L4.959 6 .127 11.206a.492.492 0 00-.001.657A.414.414 0 00.43 12c.11 0 .22-.045.304-.136L5.873 6.33A.484.484 0 006 6a.485.485 0 00-.127-.33z" fill="#000" opacity=".7"/></svg><svg fill="none" viewBox="0 0 16 16" id="pinterest-icon" xmlns="http://www.w3.org/2000/svg"><path d="M15.5 8A7.749 7.749 0 007.75.25 7.749 7.749 0 000 8a7.714 7.714 0 004.906 7.219c-.062-.594-.125-1.531.032-2.219.156-.594.906-3.844.906-3.844S5.625 8.687 5.625 8c0-1.063.625-1.875 1.406-1.875.657 0 .969.5.969 1.094 0 .656-.438 1.656-.656 2.593-.157.75.406 1.376 1.156 1.376 1.375 0 2.438-1.438 2.438-3.532 0-1.875-1.344-3.156-3.22-3.156-2.218 0-3.5 1.656-3.5 3.344 0 .687.25 1.406.563 1.781.063.063.063.156.063.219-.063.25-.219.781-.219.875-.031.156-.125.187-.281.125-.969-.469-1.563-1.875-1.563-3.031 0-2.438 1.781-4.688 5.125-4.688 2.688 0 4.782 1.938 4.782 4.5 0 2.656-1.688 4.813-4.032 4.813-.781 0-1.531-.407-1.781-.907 0 0-.375 1.5-.469 1.844-.187.688-.656 1.531-.968 2.031.718.25 1.5.344 2.312.344A7.749 7.749 0 0015.5 8z" fill="#707070"/></svg><svg fill="none" viewBox="0 0 17 17" id="search" xmlns="http://www.w3.org/2000/svg"><path fill-rule="evenodd" clip-rule="evenodd" d="M11.958 10.957l4.834 4.834a.708.708 0 11-1.001 1.001l-4.835-4.834a6.697 6.697 0 01-4.227 1.5A6.737 6.737 0 010 6.73C0 3.02 3.019 0 6.73 0c3.71 0 6.728 3.019 6.728 6.73 0 1.6-.564 3.07-1.5 4.226zM1.417 6.729a5.318 5.318 0 005.312 5.313 5.318 5.318 0 005.312-5.313A5.318 5.318 0 006.73 1.417a5.318 5.318 0 00-5.312 5.312z" fill="#5A5A5A"/></svg><svg fill="none" viewBox="0 0 42 42" id="timeline-icon-1" xmlns="http://www.w3.org/2000/svg"><path fill-rule="evenodd" clip-rule="evenodd" d="M39.506 35.013L8.35 35.001c-.613-.008-.944.038-1.76.404l-5.043 2.26a.92.92 0 00-.002 1.68c1.653.743 5.045 2.263 5.045 2.263.764.342 1.095.38 1.637.38l12.21.012c.332 0 .6-.27.6-.603a.601.601 0 00-.6-.602H8.967V39.11h26.515v1.686H23.416a.601.601 0 000 1.205h16.09a2.46 2.46 0 002.455-2.46v-2.066a2.46 2.46 0 00-2.455-2.46zM4.48 37.67v1.672l-.578-.259-.003-.001-1.284-.576 1.865-.836zm1.2-.538v2.749c.438.196 1.909.843 2.087.885v-4.518c-.178.041-2.087.884-2.087.884zm3.288.772v-1.686h26.514v1.686H8.968zm30.538 2.89c.692 0 1.255-.562 1.255-1.255v-2.065c0-.692-.563-1.255-1.255-1.255h-2.824v4.576h2.824zM2.06 32l18.861-.002a.614.614 0 00.618-.611.614.614 0 00-.618-.611l-18.687.002V5.848h2.47V26.27c0 .554.456 1.005 1.017 1.005h25.616c.423 0 .791-.226.938-.576.146-.348.049-.738-.259-1.042L11.941 5.848h22.722v19.371c0 .571.47 1.035 1.047 1.035h2.723c1.264 0 2.293 1.015 2.293 2.261 0 1.247-1.029 2.26-2.293 2.26H23.758a.614.614 0 00-.618.612c0 .337.276.61.617.61h14.676c1.946 0 3.528-1.562 3.528-3.482V5.611c0-1.922-1.582-3.485-3.528-3.485H35.71c-.578 0-1.047.463-1.047 1.033v1.467h-23.96L6.34.32C6.031.015 5.636-.079 5.282.068c-.355.147-.582.511-.579.924v3.634H2.06c-.586 0-1.062.471-1.062 1.05V30.95c0 .58.476 1.051 1.062 1.051zM35.898 3.348h2.535c1.264 0 2.293 1.015 2.293 2.263V25.87a3.54 3.54 0 00-2.293-.838h-2.535V3.348zm-5.23 22.707L5.938 1.65v24.405H8.59v-.858c0-.338.277-.611.618-.611.34 0 .618.273.618.61v.858h2.652V24.39c0-.337.276-.61.618-.61.34 0 .617.273.617.61v1.666h2.65v-.858c0-.338.277-.611.618-.611.341 0 .618.273.618.61v.858h2.652V24.39c0-.337.277-.61.618-.61.341 0 .618.273.618.61v1.666h2.65v-.858c0-.338.277-.611.618-.611.341 0 .617.273.617.61v.858h5.297z" fill="#000"/><path fill-rule="evenodd" clip-rule="evenodd" d="M17.67 22h-6.193c-.44 0-.726-.293-.726-.746v-6.348c0-.24 0-.686.402-.856.396-.168.682.126.89.341l6.131 6.283c.209.214.495.507.331.913-.166.413-.6.413-.834.413zm-.905-1.148l-4.896-5.017v5.017h4.896z" fill="#000"/></svg><svg fill="none" viewBox="0 0 39 34" id="timeline-icon-2" xmlns="http://www.w3.org/2000/svg"><path fill-rule="evenodd" clip-rule="evenodd" d="M36.183 9.63h.588c.92 0 1.668.838 1.668 1.867V23.04c0 1.715-1.247 3.11-2.78 3.11h-1.732v6.102c0 .964-.701 1.748-1.563 1.748-.816 0-1.5-.713-1.558-1.624l-.396-6.225H14.267c-.308 0-.557-.28-.557-.623 0-.343.25-.622.556-.622H35.66c.92 0 1.668-.837 1.668-1.867V11.497c0-.343-.25-.622-.556-.622h-2.288c-.268 0-.493.213-.545.497a.695.695 0 00-.011.125v2.98h.895c.748 0 1.356.68 1.356 1.516v3.592c0 .837-.608 1.517-1.356 1.517H4.091c-.748 0-1.356-.68-1.356-1.517v-3.592c0-.836.608-1.517 1.356-1.517h.895v-2.98a.695.695 0 00-.011-.124c-.052-.284-.277-.497-.545-.497H2.142c-.307 0-.556.279-.556.622v11.542c0 1.03.748 1.867 1.668 1.867h8.417c.307 0 .556.279.556.622 0 .344-.249.623-.556.623H8.503l-.396 6.225C8.049 33.286 7.365 34 6.549 34c-.862 0-1.563-.784-1.563-1.748v-6.101H3.254c-1.533 0-2.78-1.396-2.78-3.111V11.497c0-1.03.748-1.867 1.668-1.867h.588V2.862C2.73 1.284 3.878 0 5.288 0h12.166c.81 0 1.533.424 2.002 1.084C19.926.424 20.648 0 21.46 0h12.166c1.249 0 2.309.998 2.52 2.373.053.339-.15.66-.453.72-.303.057-.59-.17-.642-.508-.12-.777-.72-1.34-1.425-1.34H21.459c-.798 0-1.446.725-1.446 1.617v11.639l.025-.006c.095-.022.195-.022 5.139-.02h.003l7.634.001v-2.98c0-1.028.749-1.866 1.669-1.866h.588V5.38c0-.343.249-.622.556-.622.307 0 .556.279.556.623v4.25zM7.143 32.286l.334-6.164H6.371v6.128c0 .28.173.506.386.506.202 0 .371-.206.385-.47zM35.121 19.63c0 .15-.11.272-.244.272H20.009V16.03c0-.15.11-.273.244-.273h14.625c.135 0 .244.122.244.273v3.6zM3.791 9.637h.59c.923 0 1.675.838 1.675 1.869v2.982l7.682-.002h.004c4.971-.001 5.056-.001 5.135.02h.004a.324.324 0 00.023.006V2.863c0-.893-.651-1.62-1.452-1.62H5.242c-.8 0-1.451.727-1.451 1.62v6.774zm0 9.993v-3.601c0-.15.11-.273.244-.273H18.66c.134 0 .244.122.244.273v3.873H4.035c-.134 0-.244-.122-.244-.272zm28.365 13.126c.213 0 .386-.227.386-.506v-6.128h-1.106l.335 6.164c.014.264.183.47.385.47z" fill="#000"/></svg><svg fill="none" viewBox="0 0 39 26" id="timeline-icon-3" xmlns="http://www.w3.org/2000/svg"><path fill-rule="evenodd" clip-rule="evenodd" d="M24.373 19.13h13.502c.45 0 .815.397.815.886V25.396c0 .334-.248.604-.556.604-.307 0-.556-.27-.556-.604v-1.963h-5.97c-.308 0-.557-.27-.557-.604 0-.334.249-.605.556-.605h5.971V20.338H24.373v1.886h4.97c.307 0 .556.271.556.605 0 .334-.249.604-.556.604h-4.97v1.107c0 .609-.457 1.104-1.02 1.104H12.55c-6.52 0-11.824-5.752-11.824-12.822C.725 5.752 6.029 0 12.549 0c5.208 0 9.64 3.67 11.213 8.751h2.01c.484 0 .878.385.98.957l.761 4.297c.065.362-.002.697-.188.942a.935.935 0 01-.765.365h-2.187v3.818zm2.025-5.027l-.734-4.143h-1.588c.194.92.297 1.879.297 2.862v1.281h2.025zM1.85 13.427h2.142c.15 0 .356-.015.526-.202.184-.204.179-.446.176-.575a2.328 2.328 0 010-.143 8.963 8.963 0 011.373-4.506.638.638 0 00-.142-.84.529.529 0 00-.774.154 10.223 10.223 0 00-1.558 4.903H1.851c.282-5.924 4.677-10.69 10.142-10.994v1.89c-1.752.115-3.415.777-4.823 1.921a.64.64 0 00-.112.846.525.525 0 00.778.122c1.286-1.044 2.814-1.63 4.42-1.693.053-.002.095-.001.128 0h.005c.122.002.344.006.53-.193.19-.204.188-.446.186-.622v-2.27c5.65.314 10.156 5.396 10.156 11.597v8.514H12.976c-.542 0-.983.479-.983 1.067v2.017c-5.465-.305-9.86-5.07-10.142-10.994zm11.254 11.009h10.156v-1.891H13.105v1.89z" fill="#000"/><path fill-rule="evenodd" clip-rule="evenodd" d="M17.908 19.933H12.59c-3.49 0-6.329-2.916-6.329-6.5s2.84-6.5 6.329-6.5c3.488 0 6.326 2.916 6.326 6.5v5.46c0 .574-.452 1.04-1.008 1.04zm-.116-6.5c0-2.946-2.334-5.342-5.202-5.342-2.87 0-5.204 2.396-5.204 5.341 0 2.947 2.334 5.344 5.204 5.344h5.202v-5.344z" fill="#000"/><path fill-rule="evenodd" clip-rule="evenodd" d="M14.61 15.6h-4.043c-.63 0-1.142-.489-1.142-1.09v-2.156c0-.6.513-1.087 1.142-1.087h4.044c.63 0 1.142.488 1.142 1.087v2.156c0 .601-.512 1.09-1.142 1.09zm-.127-3.123h-3.787v1.912h3.787v-1.912z" fill="#000"/></svg><svg fill="none" viewBox="0 0 14 14" id="whatsapp-icon" xmlns="http://www.w3.org/2000/svg"><path d="M11.875 2.063A6.826 6.826 0 006.969 0C3.156 0 .03 3.125.03 6.938c0 1.25.344 2.437.938 3.468L0 14l3.656-.938c1.031.532 2.156.844 3.313.844 3.843 0 7.031-3.125 7.031-6.937 0-1.875-.813-3.594-2.125-4.907zM6.969 12.719a5.78 5.78 0 01-2.938-.813l-.187-.125-2.188.594.594-2.125-.156-.219c-.563-.937-.875-2-.875-3.094 0-3.156 2.593-5.75 5.781-5.75 1.531 0 2.969.594 4.063 1.688 1.093 1.094 1.75 2.531 1.75 4.094 0 3.156-2.657 5.75-5.844 5.75zm3.187-4.313c-.187-.094-1.031-.5-1.187-.562-.156-.063-.281-.094-.406.093-.094.157-.438.563-.532.688-.125.094-.219.125-.375.031-1.031-.5-1.687-.906-2.375-2.062-.187-.313.188-.282.5-.938.063-.125.032-.218 0-.312-.031-.094-.406-.938-.531-1.282-.156-.343-.281-.312-.406-.312H4.53a.586.586 0 00-.468.219c-.157.187-.594.594-.594 1.437 0 .875.594 1.688.687 1.813.094.093 1.219 1.843 2.969 2.593 1.094.5 1.531.532 2.094.438.312-.031 1-.406 1.156-.813.156-.406.156-.75.094-.812-.031-.094-.156-.125-.313-.219z" fill="#707070"/></svg><svg fill="none" viewBox="0 0 18 12" id="youtube-icon" xmlns="http://www.w3.org/2000/svg"><path d="M17.156 1.906a2.126 2.126 0 00-1.5-1.531C14.312 0 9 0 9 0S3.656 0 2.312.375a2.126 2.126 0 00-1.5 1.531C.438 3.22.438 6.031.438 6.031s0 2.782.376 4.125c.187.75.78 1.313 1.5 1.5C3.655 12 9 12 9 12s5.313 0 6.656-.344a2.084 2.084 0 001.5-1.5c.375-1.344.375-4.125.375-4.125s0-2.812-.375-4.125zM7.25 8.563V3.5l4.438 2.531L7.25 8.563z" fill="#707070"/></svg></svg>